<svg width="404" height="236" viewBox="0 0 404 236" fill="none" xmlns="http://www.w3.org/2000/svg">
<rect width="404" height="236" fill="white"/>
<g filter="url(#filter0_d)">
<path d="M151.388 154.194L173.029 71.0994L58.9998 64.5925L35.333 141.696L35.4108 159.695L151.466 172.194L196.271 126.999L184.271 127.051L151.44 166.194L151.388 154.194Z" fill="#242424"/>
<path d="M170.822 85.8969L182.592 85.5582L150.94 166.196L150.729 158.858L170.822 85.8969Z" fill="#E3AB66"/>
<path d="M175.691 108.588L188.163 102.034L153.916 160.683L150.895 155.696L175.691 108.588Z" fill="#E3AB66"/>
<path d="M182.715 114.058L192.215 114.017L151.614 165.835L151.525 162.752L182.715 114.058Z" fill="#E3AB66"/>
</g>
<path d="M252.75 109.625H236.312L233.188 119H223.219L240.156 73.5H248.844L265.875 119H255.906L252.75 109.625ZM238.844 102.031H250.219L244.5 85L238.844 102.031ZM308.356 103.844C308.002 108.74 306.19 112.594 302.919 115.406C299.669 118.219 295.377 119.625 290.044 119.625C284.21 119.625 279.617 117.667 276.263 113.75C272.929 109.812 271.263 104.417 271.263 97.5625V94.7812C271.263 90.4062 272.033 86.5521 273.575 83.2188C275.117 79.8854 277.315 77.3333 280.169 75.5625C283.044 73.7708 286.377 72.875 290.169 72.875C295.419 72.875 299.648 74.2812 302.856 77.0938C306.065 79.9062 307.919 83.8542 308.419 88.9375H299.044C298.815 86 297.992 83.875 296.575 82.5625C295.179 81.2292 293.044 80.5625 290.169 80.5625C287.044 80.5625 284.7 81.6875 283.138 83.9375C281.596 86.1667 280.804 89.6354 280.763 94.3438V97.7812C280.763 102.698 281.502 106.292 282.981 108.562C284.481 110.833 286.835 111.969 290.044 111.969C292.94 111.969 295.096 111.312 296.513 110C297.95 108.667 298.773 106.615 298.981 103.844H308.356ZM345.088 99.2812H327.088V111.469H348.213V119H317.713V73.5H348.15V81.0938H327.088V91.9375H345.088V99.2812ZM230.349 159.881H241.235V164H225.222V139.117H230.349V159.881ZM252.579 164H247.623V145.509H252.579V164ZM247.333 140.724C247.333 139.983 247.577 139.374 248.067 138.895C248.569 138.417 249.247 138.177 250.101 138.177C250.944 138.177 251.616 138.417 252.118 138.895C252.619 139.374 252.87 139.983 252.87 140.724C252.87 141.476 252.613 142.091 252.101 142.569C251.599 143.048 250.933 143.287 250.101 143.287C249.269 143.287 248.597 143.048 248.084 142.569C247.583 142.091 247.333 141.476 247.333 140.724ZM276.826 154.925C276.826 157.888 276.194 160.2 274.929 161.864C273.665 163.516 271.899 164.342 269.631 164.342C267.626 164.342 266.025 163.573 264.829 162.035L264.607 164H260.164V137.75H265.103V147.167C266.242 145.833 267.74 145.167 269.597 145.167C271.853 145.167 273.619 145.999 274.895 147.662C276.182 149.314 276.826 151.644 276.826 154.652V154.925ZM271.887 154.566C271.887 152.698 271.591 151.336 270.999 150.482C270.406 149.616 269.523 149.183 268.35 149.183C266.777 149.183 265.695 149.827 265.103 151.114V158.412C265.706 159.71 266.8 160.36 268.384 160.36C269.979 160.36 271.027 159.574 271.528 158.001C271.768 157.25 271.887 156.104 271.887 154.566ZM293.776 150.14C293.104 150.049 292.511 150.003 291.999 150.003C290.13 150.003 288.905 150.636 288.324 151.9V164H283.385V145.509H288.051L288.188 147.713C289.179 146.016 290.552 145.167 292.306 145.167C292.853 145.167 293.366 145.241 293.844 145.389L293.776 150.14ZM309.871 164C309.643 163.556 309.478 163.003 309.375 162.342C308.179 163.675 306.624 164.342 304.71 164.342C302.898 164.342 301.395 163.818 300.198 162.77C299.013 161.721 298.421 160.4 298.421 158.805C298.421 156.845 299.144 155.341 300.591 154.293C302.05 153.245 304.152 152.715 306.897 152.704H309.17V151.644C309.17 150.79 308.948 150.106 308.504 149.593C308.071 149.081 307.382 148.824 306.436 148.824C305.604 148.824 304.949 149.024 304.471 149.422C304.004 149.821 303.77 150.368 303.77 151.063H298.831C298.831 149.992 299.161 149.001 299.822 148.089C300.483 147.178 301.417 146.466 302.625 145.953C303.833 145.429 305.188 145.167 306.692 145.167C308.971 145.167 310.777 145.742 312.11 146.893C313.454 148.032 314.126 149.639 314.126 151.712V159.728C314.138 161.482 314.383 162.809 314.861 163.709V164H309.871ZM305.787 160.565C306.516 160.565 307.188 160.405 307.803 160.086C308.418 159.756 308.874 159.317 309.17 158.771V155.592H307.325C304.852 155.592 303.536 156.446 303.377 158.155L303.36 158.446C303.36 159.061 303.576 159.568 304.009 159.967C304.442 160.366 305.035 160.565 305.787 160.565ZM331.811 150.14C331.139 150.049 330.546 150.003 330.034 150.003C328.165 150.003 326.94 150.636 326.359 151.9V164H321.42V145.509H326.086L326.223 147.713C327.214 146.016 328.587 145.167 330.341 145.167C330.888 145.167 331.401 145.241 331.879 145.389L331.811 150.14ZM344.916 157.01L348.333 145.509H353.631L346.197 166.871L345.787 167.845C344.682 170.261 342.859 171.468 340.318 171.468C339.601 171.468 338.871 171.36 338.131 171.144V167.401L338.883 167.418C339.817 167.418 340.512 167.276 340.968 166.991C341.435 166.706 341.799 166.233 342.062 165.572L342.643 164.051L336.166 145.509H341.48L344.916 157.01Z" fill="#242424"/>
<defs>
<filter id="filter0_d" x="35" y="64" width="169.466" height="116.695" filterUnits="userSpaceOnUse" color-interpolation-filters="sRGB">
<feFlood flood-opacity="0" result="BackgroundImageFix"/>
<feColorMatrix in="SourceAlpha" type="matrix" values="0 0 0 0 0 0 0 0 0 0 0 0 0 0 0 0 0 0 127 0" result="hardAlpha"/>
<feOffset dx="4" dy="4"/>
<feGaussianBlur stdDeviation="2"/>
<feComposite in2="hardAlpha" operator="out"/>
<feColorMatrix type="matrix" values="0 0 0 0 0.978516 0 0 0 0 0.978516 0 0 0 0 0.978516 0 0 0 0.25 0"/>
<feBlend mode="normal" in2="BackgroundImageFix" result="effect1_dropShadow"/>
<feBlend mode="normal" in="SourceGraphic" in2="effect1_dropShadow" result="shape"/>
</filter>
</defs>
</svg>
