<svg width="404" height="236" viewBox="0 0 404 236" fill="none" xmlns="http://www.w3.org/2000/svg">
<rect width="404" height="236" fill="#383636"/>
<path d="M151.388 154.194L173.029 71.0994L58.9998 64.5925L35.333 141.696L35.4108 159.695L151.466 172.194L196.271 126.999L184.271 127.051L151.44 166.194L151.388 154.194Z" fill="white"/>
<path d="M170.822 85.8969L182.592 85.5582L150.94 166.196L150.729 158.858L170.822 85.8969Z" fill="#E3AB66"/>
<path d="M175.691 108.588L188.163 102.034L153.916 160.683L150.895 155.696L175.691 108.588Z" fill="#E3AB66"/>
<path d="M182.715 114.058L192.215 114.017L151.614 165.835L151.525 162.752L182.715 114.058Z" fill="#E3AB66"/>
<path d="M252.75 111.625H236.312L233.188 121H223.219L240.156 75.5H248.844L265.875 121H255.906L252.75 111.625ZM238.844 104.031H250.219L244.5 87L238.844 104.031ZM308.356 105.844C308.002 110.74 306.19 114.594 302.919 117.406C299.669 120.219 295.377 121.625 290.044 121.625C284.21 121.625 279.617 119.667 276.263 115.75C272.929 111.812 271.263 106.417 271.263 99.5625V96.7812C271.263 92.4062 272.033 88.5521 273.575 85.2188C275.117 81.8854 277.315 79.3333 280.169 77.5625C283.044 75.7708 286.377 74.875 290.169 74.875C295.419 74.875 299.648 76.2812 302.856 79.0938C306.065 81.9062 307.919 85.8542 308.419 90.9375H299.044C298.815 88 297.992 85.875 296.575 84.5625C295.179 83.2292 293.044 82.5625 290.169 82.5625C287.044 82.5625 284.7 83.6875 283.138 85.9375C281.596 88.1667 280.804 91.6354 280.763 96.3438V99.7812C280.763 104.698 281.502 108.292 282.981 110.562C284.481 112.833 286.835 113.969 290.044 113.969C292.94 113.969 295.096 113.312 296.513 112C297.95 110.667 298.773 108.615 298.981 105.844H308.356ZM345.088 101.281H327.088V113.469H348.213V121H317.713V75.5H348.15V83.0938H327.088V93.9375H345.088V101.281ZM230.349 161.881H241.235V166H225.222V141.117H230.349V161.881ZM252.579 166H247.623V147.509H252.579V166ZM247.333 142.724C247.333 141.983 247.577 141.374 248.067 140.895C248.569 140.417 249.247 140.177 250.101 140.177C250.944 140.177 251.616 140.417 252.118 140.895C252.619 141.374 252.87 141.983 252.87 142.724C252.87 143.476 252.613 144.091 252.101 144.569C251.599 145.048 250.933 145.287 250.101 145.287C249.269 145.287 248.597 145.048 248.084 144.569C247.583 144.091 247.333 143.476 247.333 142.724ZM276.826 156.925C276.826 159.888 276.194 162.2 274.929 163.864C273.665 165.516 271.899 166.342 269.631 166.342C267.626 166.342 266.025 165.573 264.829 164.035L264.607 166H260.164V139.75H265.103V149.167C266.242 147.833 267.74 147.167 269.597 147.167C271.853 147.167 273.619 147.999 274.895 149.662C276.182 151.314 276.826 153.644 276.826 156.652V156.925ZM271.887 156.566C271.887 154.698 271.591 153.336 270.999 152.482C270.406 151.616 269.523 151.183 268.35 151.183C266.777 151.183 265.695 151.827 265.103 153.114V160.412C265.706 161.71 266.8 162.36 268.384 162.36C269.979 162.36 271.027 161.574 271.528 160.001C271.768 159.25 271.887 158.104 271.887 156.566ZM293.776 152.14C293.104 152.049 292.511 152.003 291.999 152.003C290.13 152.003 288.905 152.636 288.324 153.9V166H283.385V147.509H288.051L288.188 149.713C289.179 148.016 290.552 147.167 292.306 147.167C292.853 147.167 293.366 147.241 293.844 147.389L293.776 152.14ZM309.871 166C309.643 165.556 309.478 165.003 309.375 164.342C308.179 165.675 306.624 166.342 304.71 166.342C302.898 166.342 301.395 165.818 300.198 164.77C299.013 163.721 298.421 162.4 298.421 160.805C298.421 158.845 299.144 157.341 300.591 156.293C302.05 155.245 304.152 154.715 306.897 154.704H309.17V153.644C309.17 152.79 308.948 152.106 308.504 151.593C308.071 151.081 307.382 150.824 306.436 150.824C305.604 150.824 304.949 151.024 304.471 151.422C304.004 151.821 303.77 152.368 303.77 153.063H298.831C298.831 151.992 299.161 151.001 299.822 150.089C300.483 149.178 301.417 148.466 302.625 147.953C303.833 147.429 305.188 147.167 306.692 147.167C308.971 147.167 310.777 147.742 312.11 148.893C313.454 150.032 314.126 151.639 314.126 153.712V161.728C314.138 163.482 314.383 164.809 314.861 165.709V166H309.871ZM305.787 162.565C306.516 162.565 307.188 162.405 307.803 162.086C308.418 161.756 308.874 161.317 309.17 160.771V157.592H307.325C304.852 157.592 303.536 158.446 303.377 160.155L303.36 160.446C303.36 161.061 303.576 161.568 304.009 161.967C304.442 162.366 305.035 162.565 305.787 162.565ZM331.811 152.14C331.139 152.049 330.546 152.003 330.034 152.003C328.165 152.003 326.94 152.636 326.359 153.9V166H321.42V147.509H326.086L326.223 149.713C327.214 148.016 328.587 147.167 330.341 147.167C330.888 147.167 331.401 147.241 331.879 147.389L331.811 152.14ZM344.916 159.01L348.333 147.509H353.631L346.197 168.871L345.787 169.845C344.682 172.261 342.859 173.468 340.318 173.468C339.601 173.468 338.871 173.36 338.131 173.144V169.401L338.883 169.418C339.817 169.418 340.512 169.276 340.968 168.991C341.435 168.706 341.799 168.233 342.062 167.572L342.643 166.051L336.166 147.509H341.48L344.916 159.01Z" fill="white"/>
</svg>
